<svg xmlns="http://www.w3.org/2000/svg" viewBox="0 0 512 512" width="512" height="512">
  <defs>
    <linearGradient id="g" x1="0" y1="0" x2="0.55" y2="1">
      <stop offset="0" stop-color="#5b9bff"/>
      <stop offset="1" stop-color="#2f6fe0"/>
    </linearGradient>
  </defs>
  <rect width="512" height="512" rx="112" fill="url(#g)"/>
  <g transform="translate(79.6,80.3) scale(14)" fill="#ffffff">
    <path d="M9.2 3.1c-.5.3-.7.9-.9 1.6-.6.2-1.4.6-2 1.4C5.1 7.5 4.6 9.2 4.6 11c0 .5.3.9.8 1l1.7.5c.3.1.6 0 .8-.2l.9-1c.3-.3.8-.3 1 .1.2.3.1.6-.1.9-.9 1-2.2 2-3.4 3.2-.9.9-1.5 1.9-1.7 3.1-.1.5.3 1 .8 1h10.6c.4 0 .8-.3.8-.8 0-3.2-.5-5.9-1.6-8.2-1-2.2-2.5-4-4.4-5.4.2-.5.2-1 0-1.5-.3-.7-1-1.1-1.7-1.1-.4 0-.8.1-1.1.3-.2-.2-.5-.3-.8-.3-.3 0-.6.1-.9.3z"/>
    <rect x="6.4" y="20.2" width="11.2" height="1.9" rx=".9"/>
  </g>
</svg>
